<?xml version="1.0" encoding="UTF-8" standalone="no"?>
<svg
   xmlns:dc="http://purl.org/dc/elements/1.1/"
   xmlns:cc="http://creativecommons.org/ns#"
   xmlns:rdf="http://www.w3.org/1999/02/22-rdf-syntax-ns#"
   xmlns:svg="http://www.w3.org/2000/svg"
   xmlns="http://www.w3.org/2000/svg"
   xmlns:sodipodi="http://sodipodi.sourceforge.net/DTD/sodipodi-0.dtd"
   xmlns:inkscape="http://www.inkscape.org/namespaces/inkscape"
   id="Layer_1"
   style="enable-background:new 0 0 48 48;"
   version="1.1"
   viewBox="0 0 48 48"
   xml:space="preserve"
   sodipodi:docname="linux.svg"
   inkscape:version="0.92.1 r15371"><metadata
     id="metadata16"><rdf:RDF><cc:Work
         rdf:about=""><dc:format>image/svg+xml</dc:format><dc:type
           rdf:resource="http://purl.org/dc/dcmitype/StillImage" /><dc:title></dc:title></cc:Work></rdf:RDF></metadata><defs
     id="defs14" /><sodipodi:namedview
     pagecolor="#ffffff"
     bordercolor="#666666"
     borderopacity="1"
     objecttolerance="10"
     gridtolerance="10"
     guidetolerance="10"
     inkscape:pageopacity="0"
     inkscape:pageshadow="2"
     inkscape:window-width="640"
     inkscape:window-height="480"
     id="namedview12"
     showgrid="false"
     inkscape:zoom="4.9166667"
     inkscape:cx="24"
     inkscape:cy="24"
     inkscape:window-x="0"
     inkscape:window-y="31"
     inkscape:window-maximized="0"
     inkscape:current-layer="Layer_1" /><style
     type="text/css"
     id="style2">
	.st0{opacity:0.3;fill:#29ABE2;enable-background:new    ;}
	.st1{fill:#29ABE2;}
</style><path
     style="opacity:0.3;fill:#29abe2;enable-background:new"
     inkscape:connector-curvature="0"
     id="path6"
     d="M 37.8,30 C 37.5,29.8 37.3,29.7 37.1,29.5 36.9,29.3 37,28.9 37,28.5 37.1,28.1 37,27.7 36.9,27.4 37,26.9 37,26.4 37,26 37,22 35.1,19.7 33.7,17.9 32.7,16.8 32,16 32,15 32,9 30.3,6 27,6 c -2.5,0 -4,1.3 -4,7.5 -0.1,1.6 -0.6,3.1 -1.5,4.5 -0.4,0.7 -0.7,1.4 -1,2.2 -0.9,2 -1.6,4 -2,6.1 -0.5,0.3 -0.7,0.8 -0.8,1.4 0,0.2 -0.1,0.3 -0.1,0.5 -0.2,0.1 -0.4,0.2 -0.7,0.2 -0.8,0.1 -1.9,0.4 -1.9,1.4 0,0.3 0,0.6 0.1,0.9 0.1,0.7 0.1,1.4 -0.1,2.1 0,0 0,0.1 0,0.1 0,1.4 2.2,1.6 3.5,1.7 l 0.5,0.1 c 0.3,0.1 0.7,0.2 1,0.4 0.8,0.5 1.8,0.8 2.7,0.9 0.4,0 0.7,-0.2 1,-0.4 l 0.1,-0.1 c 1,-0.4 2.1,-0.6 3.1,-0.5 h 3.9 c 0.1,0.2 0.2,0.4 0.3,0.5 0.3,0.3 0.8,0.5 1.3,0.5 1.2,0 2.3,-0.6 3,-1.6 L 35.8,34 c 0.4,-0.4 0.9,-0.6 1.5,-0.8 C 38.1,32.9 39,32.6 39,31.7 39,30.8 38.3,30.4 37.8,30 Z M 28.5,10 c 0.6,0 1,0.6 1,1.5 0.1,0.6 -0.2,1.1 -0.7,1.4 0.2,-0.2 0.3,-0.6 0.3,-0.9 0,-0.6 -0.3,-1 -0.6,-1 -0.3,0 -0.6,0.5 -0.6,1 0,0.3 0.1,0.6 0.3,0.9 -0.5,-0.3 -0.8,-0.9 -0.7,-1.4 0,-0.9 0.4,-1.5 1,-1.5 z m 0.5,4.4 c -0.9,0.7 -1.9,1.2 -3,1.6 -0.8,-0.3 -1.5,-0.8 -2,-1.5 0.6,-0.8 1.5,-1.4 2.4,-1.5 1.1,0.3 2.4,0.9 2.6,1.4 z M 24.5,10 c 0.6,0 1,0.6 1,1.5 0.1,0.6 -0.2,1.1 -0.7,1.4 0.2,-0.2 0.3,-0.6 0.3,-0.9 0,-0.6 -0.3,-1 -0.6,-1 -0.3,0 -0.6,0.5 -0.6,1 0,0.3 0.1,0.6 0.3,0.9 -0.5,-0.3 -0.7,-0.9 -0.7,-1.4 0,-0.9 0.4,-1.5 1,-1.5 z M 23.2,34.6 C 23.1,34.8 23,35 22.8,35 22,34.9 21.2,34.6 20.5,34.2 20.1,34 19.7,33.8 19.2,33.7 l -0.6,-0.1 c -2.1,-0.2 -2.5,-0.5 -2.6,-0.7 0.2,-0.8 0.3,-1.7 0.1,-2.5 0,-0.2 -0.1,-0.5 -0.1,-0.7 0,-0.2 0.7,-0.4 1.1,-0.5 0.4,0 0.8,-0.2 1.2,-0.5 0.2,-0.3 0.4,-0.6 0.4,-1 0.1,-0.7 0.2,-0.8 0.4,-0.8 0.2,0 0.7,1 0.9,1.5 0.4,1.1 1,2 1.8,2.8 1.1,0.9 1.6,2.2 1.4,3.4 z m 7.7,-3.5 c -0.5,0.1 -0.9,0.2 -1.4,0.3 H 29.4 C 27.6,32 25.8,32.2 23.9,32 H 23.7 C 23.4,31.5 23,31 22.5,30.6 21.8,29.9 21.3,29.1 21,28.2 c -0.4,-0.9 -0.8,-1.8 -1.4,-2 0.5,-2 1.1,-3.9 1.9,-5.7 0.3,-0.7 0.6,-1.4 1,-2.1 0.5,-0.9 0.9,-1.8 1.3,-2.8 0.6,0.7 1.5,1.1 2.3,1.3 1.2,-0.3 2.3,-0.9 3.4,-1.6 C 31.1,19 32,23 32,27 c -0.7,0.6 -1,2.5 -1.1,4.1 z m 6.1,1.2 c -0.7,0.2 -1.3,0.5 -1.8,1 l -0.4,0.4 c -0.5,0.8 -1.4,1.3 -2.3,1.3 -0.2,0 -0.4,0 -0.6,-0.2 -0.2,-0.3 -0.2,-0.8 -0.2,-1 0,-0.1 0,-0.1 0,-0.2 0,-1.5 0.2,-3 0.4,-4.5 0.1,0.2 0.1,0.3 0.3,0.4 0.3,0.3 0.7,0.5 1.1,0.4 0.9,0.1 1.8,-0.2 2.5,-0.7 0,0.3 0.1,0.7 0.4,0.9 0.3,0.3 0.6,0.5 0.9,0.7 0.5,0.3 0.8,0.6 0.8,0.9 C 38,32 37.3,32.1 37,32.3 Z"
     class="st0" /></svg>