<?xml version="1.0" encoding="UTF-8" standalone="no"?>
<!--part of the matt icon theme by sixsixfive released under CC0 (https://creativecommons.org/publicdomain/zero/1.0/) on openclipart-->
<svg xmlns="http://www.w3.org/2000/svg" xmlns:xlink="http://www.w3.org/1999/xlink" viewBox="0 0 128 128">
 <defs id="0">
  <linearGradient id="5">
   <stop id="O" stop-opacity="0.306"/>
   <stop id="P" offset="1" stop-opacity="0"/>
  </linearGradient>
  <linearGradient id="6">
   <stop id="Q" stop-opacity="0.754"/>
   <stop id="R" offset="1" stop-opacity="0"/>
  </linearGradient>
  <linearGradient id="7">
   <stop id="S" stop-color="#969696"/>
   <stop id="T" offset="1" stop-color="#7b7b7b"/>
  </linearGradient>
  <linearGradient id="8">
   <stop id="U" stop-color="#d6d6d6"/>
   <stop id="V" offset="1" stop-color="#bcbcbc"/>
  </linearGradient>
  <linearGradient id="9">
   <stop id="W" stop-color="#fff"/>
   <stop id="X" offset="1" stop-color="#fff" stop-opacity="0"/>
  </linearGradient>
  <radialGradient cx="64.47" cy="123.18" r="36.15" id="A" xlink:href="#6" gradientUnits="userSpaceOnUse" gradientTransform="matrix(1,0,0,0.1021597,0,110.59188)"/>
  <filter x="-0.057" y="-0.897" width="1.114" height="2.795" color-interpolation-filters="sRGB" id="B">
   <feGaussianBlur stdDeviation="1.63995" id="Y"/>
  </filter>
  <linearGradient y1="5.062" x2="0" y2="122.29" id="C" xlink:href="#7" gradientUnits="userSpaceOnUse"/>
  <radialGradient cx="72.06" cy="39.09" r="55.29" id="D" xlink:href="#8" gradientUnits="userSpaceOnUse" gradientTransform="matrix(1.0158202,-0.1265619,0.1233367,0.9899345,-5.960866,9.5726837)"/>
  <radialGradient cx="68.18" cy="125.16" r="55.29" id="E" xlink:href="#5" gradientUnits="userSpaceOnUse" gradientTransform="matrix(0.9999658,-0.00827324,0.01211143,1.4638781,-1.1101262,-42.162074)"/>
  <radialGradient cx="62.16" cy="1.297" r="56.791" id="F" xlink:href="#9" gradientUnits="userSpaceOnUse" gradientTransform="matrix(1.3326319,-7.2282954e-5,7.0824836e-5,1.3057479,-19.106292,-0.2142197)"/>
 </defs>
 <path d="m 99.12281,123.17544 a 34.649124,2.1929824 0 1 1 -69.298248,0 34.649124,2.1929824 0 1 1 69.298248,0 z" transform="matrix(0.5321612,0,0,0.6594287,55.408878,31.783466)" id="1" opacity="0.729" fill="url(#A)" filter="url(#B)"/>
 <path d="m 99.12281,123.17544 a 34.649124,2.1929824 0 1 1 -69.298248,0 34.649124,2.1929824 0 1 1 69.298248,0 z" transform="matrix(0.8769304,0,0,0.8989031,-10.169603,-26.648247)" id="2" opacity="0.729" fill="url(#A)" filter="url(#B)"/>
 <g transform="matrix(0.6774392,0,0,0.6774392,2.1101802,1.6326562)" id="3">
  <path d="M 81.53125,5.0625 C 80.012371,5.0317137 78.459738,5.7474636 77.625,6.96875 A 3.4673982,3.4673982 0 0 0 77.625,7 l -8.9375,13.125 c -2.393699,-0.205876 -4.815454,-0.200429 -7.25,0 L 52.15625,7.53125 C 51.035342,6.0057061 48.679084,5.2975765 46.84375,6.0625 l -10.4375,4.34375 c -1.969483,0.82084 -3.098373,2.877342 -2.6875,5 l 2.875,15.03125 C 34.82634,31.965221 33.219714,33.626132 31.75,35.375 l -15.625,-2.34375 -0.03125,0 c -1.874867,-0.271053 -3.984541,0.69149 -4.8125,2.6875 L 6.9375,46.15625 A 3.4673982,3.4673982 0 0 0 6.90625,46.1875 c -0.8824968,2.13083 -0.1006323,4.260281 1.6875,5.46875 l 12.9375,8.71875 c -0.168587,2.588245 -0.105509,5.175234 0.1875,7.75 L 9.4375,77.0625 a 3.4673982,3.4673982 0 0 0 -0.03125,0.03125 c -1.6433262,1.206601 -2.3621479,3.306426 -1.5,5.375 L 9.75,86.9375 l 0.03125,0.03125 1.8125,4.4375 A 3.4673982,3.4673982 0 0 0 11.625,91.4375 c 0.915538,2.196688 2.812031,3.049098 4.90625,2.71875 a 3.4673982,3.4673982 0 0 0 0.03125,0 l 15,-2.40625 c 1.622669,2.008047 3.40245,3.849042 5.34375,5.53125 L 34,112.59375 c -0.401005,2.1229 0.598039,4.19485 2.71875,5.0625 l 10.46875,4.28125 c 2.04802,0.83657 4.158962,0.10436 5.375,-1.5625 l 9.3125,-12.71875 c 2.260567,0.18877 4.557193,0.17482 6.875,0 l 8.65625,12.65625 c 1.255172,1.84031 3.477283,2.43678 5.5,1.59375 l 10.4375,-4.34375 c 1.996576,-0.83213 2.987906,-2.93518 2.6875,-4.84375 L 93.625,97.28125 c 1.856421,-1.592403 3.556565,-3.311324 5.09375,-5.15625 l 15.59375,2.9375 a 3.4673982,3.4673982 0 0 0 0.0312,0 c 1.9691,0.361243 3.97746,-0.777823 4.8125,-2.5 l 0.0312,0.03125 0.0312,-0.0625 a 3.4673982,3.4673982 0 0 0 0.0625,-0.15625 3.4673982,3.4673982 0 0 0 0.0625,-0.09375 l 4.125,-10.125 L 123.5,82.125 a 3.4673982,3.4673982 0 0 0 0.15625,-0.3125 c 0.11013,-0.267812 0.22549,-0.636329 0.28125,-1 0.2731,-1.780367 -0.51762,-3.374349 -1.84375,-4.34375 l -12.9375,-9.4375 c 0.19973,-2.083393 0.23334,-4.185218 0.125,-6.3125 l 12.875,-8.84375 c 0.0128,-0.0087 0.0186,-0.02247 0.0312,-0.03125 1.88243,-1.308886 2.34913,-3.581427 1.5625,-5.46875 l -2.46875,-5.9375 -2.46875,-5.90625 c -0.80024,-1.920055 -2.7292,-3.15904 -5,-2.71875 L 98.46875,34.75 C 97.040356,33.176473 95.495441,31.736933 93.875,30.40625 l 2.4375,-15.875 C 96.586174,12.718045 95.763902,11.129454 94.46875,10.1875 94.028834,9.8675133 93.56027,9.6865812 93.5625,9.6875 A 3.4673982,3.4673982 0 0 0 93.46875,9.65625 l -0.125,-0.03125 -10,-4.125 -0.0625,-0.03125 A 3.4673982,3.4673982 0 0 0 83.09375,5.375 3.4673982,3.4673982 0 0 0 83.03125,5.34375 C 82.56107,5.1524705 82.037543,5.0727621 81.53125,5.0625 z M 65.59375,47.25 c 6.41315,0.03496 12.524457,3.810486 15.15625,10.125 3.509756,8.421026 -0.479785,18.019229 -8.90625,21.53125 -8.426625,3.512087 -18.0202,-0.450864 -21.53125,-8.875 -3.512088,-8.426624 0.450865,-18.0202 8.875,-21.53125 2.096042,-0.873598 4.264968,-1.261673 6.40625,-1.25 z" id="G" fill="url(#C)"/>
  <path d="m 37.743827,13.586918 c -0.452015,0.188391 -0.712202,0.694243 -0.619346,1.173957 l 3.259856,16.957824 c -2.77509,2.145285 -5.206114,4.654771 -7.289037,7.376074 L 15.606406,36.454412 c -0.470987,-0.07154 -0.957358,0.180214 -1.139608,0.619575 l -4.328329,10.432008 c -0.1875589,0.452871 -0.016,1.008793 0.390286,1.283373 l 14.5429,9.796963 c -0.451965,3.651696 -0.320484,7.439215 0.268071,11.16737 l -13.859835,10.11468 c -0.383994,0.281942 -0.570159,0.82936 -0.386607,1.269761 l 1.865675,4.476354 1.865676,4.476354 c 0.183549,0.440398 0.703392,0.693571 1.173956,0.619343 l 16.940767,-2.722536 c 2.233394,3.042611 4.830729,5.802399 7.742349,8.052206 l -3.28038,17.225427 c -0.09102,0.48185 0.18302,0.99506 0.63669,1.18067 l 10.45596,4.27015 c 0.44034,0.17987 0.96154,0.0117 1.24231,-0.37317 l 10.43698,-14.27943 c 3.39905,0.43651 6.89272,0.47667 10.36997,0.0161 l 9.74852,14.25344 c 0.27532,0.40367 0.81775,0.575 1.26976,0.38661 l 10.43114,-4.34754 c 0.4382,-0.18263 0.66952,-0.6448 0.59539,-1.11577 l -2.67808,-17.296697 c 2.86267,-2.211124 5.36069,-4.778778 7.4841,-7.601974 l 17.564243,3.283771 c 0.4826,0.08853 0.95076,-0.166166 1.13961,-0.619575 l 0.0239,-0.05818 4.24619,-10.397776 0.065,-0.0753 c 0.0306,-0.07431 0.0431,-0.139642 0.0547,-0.215618 0.0573,-0.373803 -0.0913,-0.752051 -0.41079,-0.98562 l -14.5463,-10.614958 c 0.4614,-3.210201 0.55698,-6.488493 0.21463,-9.77791 L 120.228,49.004225 c 0.40347,-0.275001 0.51652,-0.842413 0.32842,-1.293712 l -2.46474,-5.913715 -2.46475,-5.913716 c -0.18809,-0.451295 -0.67065,-0.770468 -1.15,-0.677526 l -17.221343,3.321492 c -2.09514,-2.558884 -4.49067,-4.798918 -7.09538,-6.731211 l 2.70193,-17.803765 c 0.05907,-0.391363 -0.10495,-0.763184 -0.41079,-0.985619 -0.06216,-0.04521 -0.11738,-0.08231 -0.19167,-0.112921 l -0.09925,-0.0068 -10.37382,-4.3043775 -0.05819,-0.023951 c -0.45495,-0.1850826 -0.96544,-0.031897 -1.2423,0.3731699 L 70.453027,23.717454 c -3.49991,-0.479482 -7.08207,-0.513013 -10.66772,-0.03658 L 49.386537,9.6020375 c -0.2823,-0.3842062 -0.77337,-0.5452916 -1.21158,-0.3626561 l -10.43113,4.3475366 z m 20.1134,31.720504 c 10.15582,-4.232787 21.83353,0.574309 26.06632,10.730129 4.23279,10.15582 -0.57431,21.833534 -10.73013,26.066323 -10.15582,4.23279 -21.83353,-0.574308 -26.06632,-10.730129 -4.23279,-10.155819 0.57431,-21.833533 10.73013,-26.066323 z" id="H" fill="url(#D)"/>
  <path d="m 37.743827,13.586918 c -0.452015,0.188391 -0.712202,0.694243 -0.619346,1.173957 l 3.259856,16.957824 c -2.77509,2.145285 -5.206114,4.654771 -7.289037,7.376074 L 15.606406,36.454412 c -0.470987,-0.07154 -0.957358,0.180214 -1.139608,0.619575 l -4.328329,10.432008 c -0.1875589,0.452871 -0.016,1.008793 0.390286,1.283373 l 14.5429,9.796963 c -0.451965,3.651696 -0.320484,7.439215 0.268071,11.16737 l -13.859835,10.11468 c -0.383994,0.281942 -0.570159,0.82936 -0.386607,1.269761 l 1.865675,4.476354 1.865676,4.476354 c 0.183549,0.440398 0.703392,0.693571 1.173956,0.619343 l 16.940767,-2.722536 c 2.233394,3.042611 4.830729,5.802399 7.742349,8.052206 l -3.28038,17.225427 c -0.09102,0.48185 0.18302,0.99506 0.63669,1.18067 l 10.45596,4.27015 c 0.44034,0.17987 0.96154,0.0117 1.24231,-0.37317 l 10.43698,-14.27943 c 3.39905,0.43651 6.89272,0.47667 10.36997,0.0161 l 9.74852,14.25344 c 0.27532,0.40367 0.81775,0.575 1.26976,0.38661 l 10.43114,-4.34754 c 0.4382,-0.18263 0.66952,-0.6448 0.59539,-1.11577 l -2.67808,-17.296697 c 2.86267,-2.211124 5.36069,-4.778778 7.4841,-7.601974 l 17.564243,3.283771 c 0.4826,0.08853 0.95076,-0.166166 1.13961,-0.619575 l 0.0239,-0.05818 4.24619,-10.397776 0.065,-0.0753 c 0.0306,-0.07431 0.0431,-0.139642 0.0547,-0.215618 0.0573,-0.373803 -0.0913,-0.752051 -0.41079,-0.98562 l -14.5463,-10.614958 c 0.4614,-3.210201 0.55698,-6.488493 0.21463,-9.77791 L 120.228,49.004225 c 0.40347,-0.275001 0.51652,-0.842413 0.32842,-1.293712 l -2.46474,-5.913715 -2.46475,-5.913716 c -0.18809,-0.451295 -0.67065,-0.770468 -1.15,-0.677526 l -17.221343,3.321492 c -2.09514,-2.558884 -4.49067,-4.798918 -7.09538,-6.731211 l 2.70193,-17.803765 c 0.05907,-0.391363 -0.10495,-0.763184 -0.41079,-0.985619 -0.06216,-0.04521 -0.11738,-0.08231 -0.19167,-0.112921 l -0.09925,-0.0068 -10.37382,-4.3043775 -0.05819,-0.023951 c -0.45495,-0.1850826 -0.96544,-0.031897 -1.2423,0.3731699 L 70.453027,23.717454 c -3.49991,-0.479482 -7.08207,-0.513013 -10.66772,-0.03658 L 49.386537,9.6020375 c -0.2823,-0.3842062 -0.77337,-0.5452916 -1.21158,-0.3626561 l -10.43113,4.3475366 z m 20.1134,31.720504 c 10.15582,-4.232787 21.83353,0.574309 26.06632,10.730129 4.23279,10.15582 -0.57431,21.833534 -10.73013,26.066323 -10.15582,4.23279 -21.83353,-0.574308 -26.06632,-10.730129 -4.23279,-10.155819 0.57431,-21.833533 10.73013,-26.066323 z" id="I" fill="url(#E)"/>
  <path d="M 81.5625,10.21875 71.75,24.625 a 1.5971385,1.5971385 0 0 1 -1.53125,0.6875 C 66.85521,24.851699 63.440269,24.82413 60,25.28125 A 1.5971385,1.5971385 0 0 1 58.5,24.625 l -10.125,-13.71875 -9.59375,4 3.15625,16.5 a 1.5971385,1.5971385 0 0 1 -0.59375,1.5625 c -2.654424,2.052004 -4.961289,4.471036 -6.96875,7.09375 a 1.5971385,1.5971385 0 0 1 -1.53125,0.625 L 15.75,38.125 l -3.96875,9.5625 14.1875,9.59375 a 1.5971385,1.5971385 0 0 1 0.6875,1.5 c -0.430377,3.477274 -0.318938,7.114859 0.25,10.71875 a 1.5971385,1.5971385 0 0 1 -0.625,1.53125 L 12.75,80.90625 14.4375,85 a 1.5971385,1.5971385 0 0 1 0,0.03125 l 1.6875,4.0625 16.5625,-2.65625 a 1.5971385,1.5971385 0 0 1 1.53125,0.625 c 2.15339,2.933621 4.657403,5.570571 7.4375,7.71875 a 1.5971385,1.5971385 0 0 1 0.59375,1.5625 l -3.1875,16.8125 9.625,3.9375 10.21875,-13.96875 a 1.5971385,1.5971385 0 0 1 1.5,-0.65625 c 3.279869,0.4212 6.582513,0.47152 9.90625,0.0312 a 1.5971385,1.5971385 0 0 1 1.53125,0.6875 l 9.5,13.90625 9.625,-4.03125 -2.625,-16.84375 a 1.5971385,1.5971385 0 0 1 0.59375,-1.5 c 2.743042,-2.118724 5.145945,-4.629385 7.1875,-7.34375 a 1.5971385,1.5971385 0 0 1 1.5625,-0.59375 l 17.125,3.2188 3.96875,-9.6875 -14.1875,-10.34375 a 1.5971385,1.5971385 0 0 1 -0.65625,-1.5 c 0.4442,-3.090566 0.54647,-6.257355 0.21875,-9.40625 a 1.5971385,1.5971385 0 0 1 0.6875,-1.46875 L 118.9375,47.9375 116.625,42.40625 114.3125,36.875 97.5625,40.09375 A 1.5971385,1.5971385 0 0 1 96,39.53125 C 93.990773,37.077294 91.721205,34.918936 89.21875,33.0625 A 1.5971385,1.5971385 0 0 1 88.5625,31.53125 L 91.21875,14.1875 81.5625,10.21875 z M 65.625,42.1875 c 8.390976,0.04574 16.356635,5.002001 19.78125,13.21875 C 89.972083,66.361142 84.764888,78.997714 73.8125,83.5625 62.860181,88.127257 50.221485,82.953462 45.65625,72 41.091492,61.047681 46.265289,48.408985 57.21875,43.84375 59.961718,42.700524 62.82965,42.172262 65.625,42.1875 z" id="J" fill="none" stroke="url(#F)" stroke-width="3"/>
 </g>
 <g transform="matrix(0.4079769,0.1545131,-0.1545131,0.4079769,72.816959,50.89643)" id="4">
  <path d="M 81.53125,5.0625 C 80.012371,5.0317137 78.459738,5.7474636 77.625,6.96875 A 3.4673982,3.4673982 0 0 0 77.625,7 l -8.9375,13.125 c -2.393699,-0.205876 -4.815454,-0.200429 -7.25,0 L 52.15625,7.53125 C 51.035342,6.0057061 48.679084,5.2975765 46.84375,6.0625 l -10.4375,4.34375 c -1.969483,0.82084 -3.098373,2.877342 -2.6875,5 l 2.875,15.03125 C 34.82634,31.965221 33.219714,33.626132 31.75,35.375 l -15.625,-2.34375 -0.03125,0 c -1.874867,-0.271053 -3.984541,0.69149 -4.8125,2.6875 L 6.9375,46.15625 A 3.4673982,3.4673982 0 0 0 6.90625,46.1875 c -0.8824968,2.13083 -0.1006323,4.260281 1.6875,5.46875 l 12.9375,8.71875 c -0.168587,2.588245 -0.105509,5.175234 0.1875,7.75 L 9.4375,77.0625 a 3.4673982,3.4673982 0 0 0 -0.03125,0.03125 c -1.6433262,1.206601 -2.3621479,3.306426 -1.5,5.375 L 9.75,86.9375 l 0.03125,0.03125 1.8125,4.4375 A 3.4673982,3.4673982 0 0 0 11.625,91.4375 c 0.915538,2.196688 2.812031,3.049098 4.90625,2.71875 a 3.4673982,3.4673982 0 0 0 0.03125,0 l 15,-2.40625 c 1.622669,2.008047 3.40245,3.849042 5.34375,5.53125 L 34,112.59375 c -0.401005,2.1229 0.598039,4.19485 2.71875,5.0625 l 10.46875,4.28125 c 2.04802,0.83657 4.158962,0.10436 5.375,-1.5625 l 9.3125,-12.71875 c 2.260567,0.18877 4.557193,0.17482 6.875,0 l 8.65625,12.65625 c 1.255172,1.84031 3.477283,2.43678 5.5,1.59375 l 10.4375,-4.34375 c 1.996576,-0.83213 2.987906,-2.93518 2.6875,-4.84375 L 93.625,97.28125 c 1.856421,-1.592403 3.556565,-3.311324 5.09375,-5.15625 l 15.59375,2.9375 a 3.4673982,3.4673982 0 0 0 0.0312,0 c 1.9691,0.361243 3.97746,-0.777823 4.8125,-2.5 l 0.0312,0.03125 0.0312,-0.0625 a 3.4673982,3.4673982 0 0 0 0.0625,-0.15625 3.4673982,3.4673982 0 0 0 0.0625,-0.09375 l 4.125,-10.125 L 123.5,82.125 a 3.4673982,3.4673982 0 0 0 0.15625,-0.3125 c 0.11013,-0.267812 0.22549,-0.636329 0.28125,-1 0.2731,-1.780367 -0.51762,-3.374349 -1.84375,-4.34375 l -12.9375,-9.4375 c 0.19973,-2.083393 0.23334,-4.185218 0.125,-6.3125 l 12.875,-8.84375 c 0.0128,-0.0087 0.0186,-0.02247 0.0312,-0.03125 1.88243,-1.308886 2.34913,-3.581427 1.5625,-5.46875 l -2.46875,-5.9375 -2.46875,-5.90625 c -0.80024,-1.920055 -2.7292,-3.15904 -5,-2.71875 L 98.46875,34.75 C 97.040356,33.176473 95.495441,31.736933 93.875,30.40625 l 2.4375,-15.875 C 96.586174,12.718045 95.763902,11.129454 94.46875,10.1875 94.028834,9.8675133 93.56027,9.6865812 93.5625,9.6875 A 3.4673982,3.4673982 0 0 0 93.46875,9.65625 l -0.125,-0.03125 -10,-4.125 -0.0625,-0.03125 A 3.4673982,3.4673982 0 0 0 83.09375,5.375 3.4673982,3.4673982 0 0 0 83.03125,5.34375 C 82.56107,5.1524705 82.037543,5.0727621 81.53125,5.0625 z M 65.59375,47.25 c 6.41315,0.03496 12.524457,3.810486 15.15625,10.125 3.509756,8.421026 -0.479785,18.019229 -8.90625,21.53125 -8.426625,3.512087 -18.0202,-0.450864 -21.53125,-8.875 -3.512088,-8.426624 0.450865,-18.0202 8.875,-21.53125 2.096042,-0.873598 4.264968,-1.261673 6.40625,-1.25 z" id="K" fill="url(#C)"/>
  <path d="m 37.743827,13.586918 c -0.452015,0.188391 -0.712202,0.694243 -0.619346,1.173957 l 3.259856,16.957824 c -2.77509,2.145285 -5.206114,4.654771 -7.289037,7.376074 L 15.606406,36.454412 c -0.470987,-0.07154 -0.957358,0.180214 -1.139608,0.619575 l -4.328329,10.432008 c -0.1875589,0.452871 -0.016,1.008793 0.390286,1.283373 l 14.5429,9.796963 c -0.451965,3.651696 -0.320484,7.439215 0.268071,11.16737 l -13.859835,10.11468 c -0.383994,0.281942 -0.570159,0.82936 -0.386607,1.269761 l 1.865675,4.476354 1.865676,4.476354 c 0.183549,0.440398 0.703392,0.693571 1.173956,0.619343 l 16.940767,-2.722536 c 2.233394,3.042611 4.830729,5.802399 7.742349,8.052206 l -3.28038,17.225427 c -0.09102,0.48185 0.18302,0.99506 0.63669,1.18067 l 10.45596,4.27015 c 0.44034,0.17987 0.96154,0.0117 1.24231,-0.37317 l 10.43698,-14.27943 c 3.39905,0.43651 6.89272,0.47667 10.36997,0.0161 l 9.74852,14.25344 c 0.27532,0.40367 0.81775,0.575 1.26976,0.38661 l 10.43114,-4.34754 c 0.4382,-0.18263 0.66952,-0.6448 0.59539,-1.11577 l -2.67808,-17.296697 c 2.86267,-2.211124 5.36069,-4.778778 7.4841,-7.601974 l 17.564243,3.283771 c 0.4826,0.08853 0.95076,-0.166166 1.13961,-0.619575 l 0.0239,-0.05818 4.24619,-10.397776 0.065,-0.0753 c 0.0306,-0.07431 0.0431,-0.139642 0.0547,-0.215618 0.0573,-0.373803 -0.0913,-0.752051 -0.41079,-0.98562 l -14.5463,-10.614958 c 0.4614,-3.210201 0.55698,-6.488493 0.21463,-9.77791 L 120.228,49.004225 c 0.40347,-0.275001 0.51652,-0.842413 0.32842,-1.293712 l -2.46474,-5.913715 -2.46475,-5.913716 c -0.18809,-0.451295 -0.67065,-0.770468 -1.15,-0.677526 l -17.221343,3.321492 c -2.09514,-2.558884 -4.49067,-4.798918 -7.09538,-6.731211 l 2.70193,-17.803765 c 0.05907,-0.391363 -0.10495,-0.763184 -0.41079,-0.985619 -0.06216,-0.04521 -0.11738,-0.08231 -0.19167,-0.112921 l -0.09925,-0.0068 -10.37382,-4.3043775 -0.05819,-0.023951 c -0.45495,-0.1850826 -0.96544,-0.031897 -1.2423,0.3731699 L 70.453027,23.717454 c -3.49991,-0.479482 -7.08207,-0.513013 -10.66772,-0.03658 L 49.386537,9.6020375 c -0.2823,-0.3842062 -0.77337,-0.5452916 -1.21158,-0.3626561 l -10.43113,4.3475366 z m 20.1134,31.720504 c 10.15582,-4.232787 21.83353,0.574309 26.06632,10.730129 4.23279,10.15582 -0.57431,21.833534 -10.73013,26.066323 -10.15582,4.23279 -21.83353,-0.574308 -26.06632,-10.730129 -4.23279,-10.155819 0.57431,-21.833533 10.73013,-26.066323 z" id="L" fill="url(#D)"/>
  <path d="m 37.743827,13.586918 c -0.452015,0.188391 -0.712202,0.694243 -0.619346,1.173957 l 3.259856,16.957824 c -2.77509,2.145285 -5.206114,4.654771 -7.289037,7.376074 L 15.606406,36.454412 c -0.470987,-0.07154 -0.957358,0.180214 -1.139608,0.619575 l -4.328329,10.432008 c -0.1875589,0.452871 -0.016,1.008793 0.390286,1.283373 l 14.5429,9.796963 c -0.451965,3.651696 -0.320484,7.439215 0.268071,11.16737 l -13.859835,10.11468 c -0.383994,0.281942 -0.570159,0.82936 -0.386607,1.269761 l 1.865675,4.476354 1.865676,4.476354 c 0.183549,0.440398 0.703392,0.693571 1.173956,0.619343 l 16.940767,-2.722536 c 2.233394,3.042611 4.830729,5.802399 7.742349,8.052206 l -3.28038,17.225427 c -0.09102,0.48185 0.18302,0.99506 0.63669,1.18067 l 10.45596,4.27015 c 0.44034,0.17987 0.96154,0.0117 1.24231,-0.37317 l 10.43698,-14.27943 c 3.39905,0.43651 6.89272,0.47667 10.36997,0.0161 l 9.74852,14.25344 c 0.27532,0.40367 0.81775,0.575 1.26976,0.38661 l 10.43114,-4.34754 c 0.4382,-0.18263 0.66952,-0.6448 0.59539,-1.11577 l -2.67808,-17.296697 c 2.86267,-2.211124 5.36069,-4.778778 7.4841,-7.601974 l 17.564243,3.283771 c 0.4826,0.08853 0.95076,-0.166166 1.13961,-0.619575 l 0.0239,-0.05818 4.24619,-10.397776 0.065,-0.0753 c 0.0306,-0.07431 0.0431,-0.139642 0.0547,-0.215618 0.0573,-0.373803 -0.0913,-0.752051 -0.41079,-0.98562 l -14.5463,-10.614958 c 0.4614,-3.210201 0.55698,-6.488493 0.21463,-9.77791 L 120.228,49.004225 c 0.40347,-0.275001 0.51652,-0.842413 0.32842,-1.293712 l -2.46474,-5.913715 -2.46475,-5.913716 c -0.18809,-0.451295 -0.67065,-0.770468 -1.15,-0.677526 l -17.221343,3.321492 c -2.09514,-2.558884 -4.49067,-4.798918 -7.09538,-6.731211 l 2.70193,-17.803765 c 0.05907,-0.391363 -0.10495,-0.763184 -0.41079,-0.985619 -0.06216,-0.04521 -0.11738,-0.08231 -0.19167,-0.112921 l -0.09925,-0.0068 -10.37382,-4.3043775 -0.05819,-0.023951 c -0.45495,-0.1850826 -0.96544,-0.031897 -1.2423,0.3731699 L 70.453027,23.717454 c -3.49991,-0.479482 -7.08207,-0.513013 -10.66772,-0.03658 L 49.386537,9.6020375 c -0.2823,-0.3842062 -0.77337,-0.5452916 -1.21158,-0.3626561 l -10.43113,4.3475366 z m 20.1134,31.720504 c 10.15582,-4.232787 21.83353,0.574309 26.06632,10.730129 4.23279,10.15582 -0.57431,21.833534 -10.73013,26.066323 -10.15582,4.23279 -21.83353,-0.574308 -26.06632,-10.730129 -4.23279,-10.155819 0.57431,-21.833533 10.73013,-26.066323 z" id="M" fill="url(#E)"/>
  <path d="M 81.5625,10.21875 71.75,24.625 a 1.5971385,1.5971385 0 0 1 -1.53125,0.6875 C 66.85521,24.851699 63.440269,24.82413 60,25.28125 A 1.5971385,1.5971385 0 0 1 58.5,24.625 l -10.125,-13.71875 -9.59375,4 3.15625,16.5 a 1.5971385,1.5971385 0 0 1 -0.59375,1.5625 c -2.654424,2.052004 -4.961289,4.471036 -6.96875,7.09375 a 1.5971385,1.5971385 0 0 1 -1.53125,0.625 L 15.75,38.125 l -3.96875,9.5625 14.1875,9.59375 a 1.5971385,1.5971385 0 0 1 0.6875,1.5 c -0.430377,3.477274 -0.318938,7.114859 0.25,10.71875 a 1.5971385,1.5971385 0 0 1 -0.625,1.53125 L 12.75,80.90625 14.4375,85 a 1.5971385,1.5971385 0 0 1 0,0.03125 l 1.6875,4.0625 16.5625,-2.65625 a 1.5971385,1.5971385 0 0 1 1.53125,0.625 c 2.15339,2.933621 4.657403,5.570571 7.4375,7.71875 a 1.5971385,1.5971385 0 0 1 0.59375,1.5625 l -3.1875,16.8125 9.625,3.9375 10.21875,-13.96875 a 1.5971385,1.5971385 0 0 1 1.5,-0.65625 c 3.279869,0.4212 6.582513,0.47152 9.90625,0.0312 a 1.5971385,1.5971385 0 0 1 1.53125,0.6875 l 9.5,13.90625 9.625,-4.03125 -2.625,-16.84375 a 1.5971385,1.5971385 0 0 1 0.59375,-1.5 c 2.743042,-2.118724 5.145945,-4.629385 7.1875,-7.34375 a 1.5971385,1.5971385 0 0 1 1.5625,-0.59375 l 17.125,3.2188 3.96875,-9.6875 -14.1875,-10.34375 a 1.5971385,1.5971385 0 0 1 -0.65625,-1.5 c 0.4442,-3.090566 0.54647,-6.257355 0.21875,-9.40625 a 1.5971385,1.5971385 0 0 1 0.6875,-1.46875 L 118.9375,47.9375 116.625,42.40625 114.3125,36.875 97.5625,40.09375 A 1.5971385,1.5971385 0 0 1 96,39.53125 C 93.990773,37.077294 91.721205,34.918936 89.21875,33.0625 A 1.5971385,1.5971385 0 0 1 88.5625,31.53125 L 91.21875,14.1875 81.5625,10.21875 z M 65.625,42.1875 c 8.390976,0.04574 16.356635,5.002001 19.78125,13.21875 C 89.972083,66.361142 84.764888,78.997714 73.8125,83.5625 62.860181,88.127257 50.221485,82.953462 45.65625,72 41.091492,61.047681 46.265289,48.408985 57.21875,43.84375 59.961718,42.700524 62.82965,42.172262 65.625,42.1875 z" id="N" fill="none" stroke="url(#F)" stroke-width="3"/>
 </g>
</svg>
